<?xml version="1.0" encoding="iso-8859-1"?>
<!-- Generator: Adobe Illustrator 19.0.0, SVG Export Plug-In . SVG Version: 6.00 Build 0)  -->
<svg version="1.1" id="Capa_1" xmlns="http://www.w3.org/2000/svg" xmlns:xlink="http://www.w3.org/1999/xlink" x="0px" y="0px"
	 viewBox="0 0 497.76 497.76" style="enable-background:new 0 0 497.76 497.76;" xml:space="preserve">
<g>
	<g>
		<path style="fill:#d8e9f0;" d="M448,255.12v-22.24c0-57.344-46.656-104-104-104c-4.32,0-8.56,0.352-12.744,0.864C313.336,54.768,245.664,0.88,168,0.88
			c-92.64,0-168,75.368-168,168s75.36,168,168,168c30.664,0,60.568-8.376,86.68-24.136c0.448,0.024,0.872,0.136,1.32,0.136h11.472
			c2.856,7.824,7.36,15.024,13.376,20.904l28.896,28.248c4.512,4.416,10.472,6.848,16.776,6.848h34.952
			c6.312,0,12.272-2.432,16.784-6.84l25.728-25.16H416c13.232,0,24-10.768,24-24v-1.472c9.288-3.312,16-12.112,16-22.528v-16
			C456,265.816,452.872,259.52,448,255.12z M145.864,18.672c-11.208,11.656-26.024,29.312-38.784,51.912
			C89.328,63.552,79.264,54.64,74.464,49.312C94.768,33.392,119.192,22.592,145.864,18.672z M62.424,59.768
			C68.432,66.44,80.128,76.68,99.712,84.76c-10.416,21.856-18.256,47.464-19.512,76.12H16.408
			C18.48,121.28,35.656,85.672,62.424,59.768z M62.44,278.016c-26.776-25.912-43.96-61.528-46.032-101.136h63.968
			c0.832,18.664,4.488,37.336,11.048,55.696C84.496,238.456,80,247.104,80,256.88c0,2.064,0.232,4.072,0.608,6.032
			C72.072,268.424,66.16,273.888,62.44,278.016z M74.528,288.496c2.672-2.928,6.912-6.904,13.112-11.096
			c5.88,6.952,14.56,11.48,24.36,11.48c2.856,0,5.576-0.496,8.208-1.2c9.12,13.008,18.272,23.584,25.776,31.424
			C119.288,315.2,94.848,304.416,74.528,288.496z M96,256.88c0-8.824,7.176-16,16-16c8.824,0,16,7.176,16,16c0,8.824-7.176,16-16,16
			C103.176,272.88,96,265.704,96,256.88z M160,310.528c-7.184-7.288-16.504-17.712-25.76-30.72c5.648-5.48,9.2-13.024,9.608-21.4
			c5.224-0.624,10.608-1.032,16.152-1.24V310.528z M160,241.168c-6.688,0.224-13.184,0.728-19.464,1.52
			C135.28,232.176,124.528,224.88,112,224.88c-2.08,0-4.104,0.232-6.08,0.616c-5.568-16.072-8.752-32.36-9.544-48.616H160V241.168z
			 M160,160.88H96.408c1.312-26.472,8.8-50.336,18.784-70.728c12.416,3.504,27.336,5.88,44.808,6.472V160.88z M160,80.64
			c-14.336-0.52-26.648-2.312-37.024-4.944C135.56,54.232,149.88,37.624,160,27.304V80.64z M273.616,59.688
			c20.224,19.504,35.024,44.696,41.96,73.24c-17.92,5.104-33.864,14.872-46.448,27.952h-13.504
			c-0.832-18.664-4.488-37.336-11.048-55.696C251.504,99.304,256,90.656,256,80.88c0-2.064-0.232-4.072-0.608-6.032
			C263.976,69.304,269.896,63.816,273.616,59.688z M261.472,49.272c-2.672,2.928-6.912,6.904-13.112,11.096
			C242.48,53.408,233.8,48.88,224,48.88c-2.856,0-5.576,0.496-8.208,1.2c-9.136-13.032-18.312-23.624-25.824-31.464
			C216.464,22.512,240.992,33.28,261.472,49.272z M240,80.88c0,8.824-7.176,16-16,16c-8.824,0-16-7.176-16-16s7.176-16,16-16
			C232.824,64.88,240,72.056,240,80.88z M176,27.232c7.184,7.288,16.504,17.712,25.76,30.72c-5.648,5.48-9.2,13.024-9.608,21.4
			c-5.224,0.624-10.608,1.032-16.152,1.24V27.232z M176,96.592c6.688-0.224,13.184-0.728,19.464-1.52
			c5.256,10.512,16.008,17.808,28.536,17.808c2.08,0,4.104-0.232,6.08-0.616c5.568,16.072,8.752,32.36,9.544,48.616H176V96.592z
			 M176,257.232c13.4,0.488,25.776,2.2,37.072,5.104C200.52,283.712,186.144,300.2,176,310.496V257.232z M189.872,319.288
			c11.128-11.592,25.928-29.248,38.76-51.904c1.264,0.504,2.544,0.976,3.768,1.512c-0.216,1.304-0.4,2.624-0.4,3.984v16
			c0,5.768,2.128,11,5.536,15.144C222.6,311.72,206.504,316.88,189.872,319.288z M240,254.608
			c-18.224-8.184-39.688-12.736-64-13.552V176.88h80.504c-10.392,16.184-16.504,35.376-16.504,56V254.608z M256,296.88
			c-4.408,0-8-3.584-8-8v-16c0-4.416,3.592-8,8-8h8v28.864c0,1.048,0.104,2.088,0.16,3.136H256z M408,293.744
			c0,10.056-3.992,19.776-10.808,27.136H344v16h37.104l-14.032,13.72c-1.504,1.464-3.496,2.28-5.592,2.28h-34.952
			c-2.104,0-4.088-0.816-5.592-2.28l-28.896-28.248c-7.656-7.488-12.04-17.912-12.04-28.608V261.16l10.976-7.312
			c6.88-4.592,15.56-6.104,23.568-4.088L344,257.12l29.464-7.36c7.952-2.016,16.672-0.504,23.56,4.088L408,261.16V293.744z
			 M405.912,240.536c-10.624-7.08-24.056-9.376-36.336-6.288L344,240.64l-25.56-6.392c-12.312-3.088-25.728-0.792-36.344,6.288
			l-12.52,8.344H256v-16c0-48.52,39.48-88,88-88c48.52,0,88,39.48,88,88v16h-13.576L405.912,240.536z M417.072,320.664
			c1.368-2.496,2.488-5.112,3.464-7.784H424C424,316.912,420.952,320.12,417.072,320.664z M440,288.88c0,4.416-3.592,8-8,8h-8.16
			c0.056-1.04,0.16-2.08,0.16-3.136V264.88h8c4.408,0,8,3.584,8,8V288.88z"/>
	</g>
</g>
<g>
	<g>
		<path style="fill:#d8e9f0;" d="M487.384,445.016c-5.232-26.168-24.36-47.176-49.912-54.84L400,378.928V368.88h-16v14.456l-10.92,27.312l-17.768-17.768
			h-22.624l-17.768,17.768L304,383.336V368.88h-16v10.048l-37.472,11.24c-25.552,7.664-44.68,28.68-49.912,54.84L190.24,496.88
			h307.52L487.384,445.016z M313.224,480.88H265.76l6.088-30.432l-15.688-3.144l-6.72,33.576h-39.68l6.544-32.728
			c4.072-20.352,18.944-36.696,38.824-42.656l36.16-10.848l17.792,44.464l7.424-7.424l3.28,9.84L313.224,480.88z M358.56,480.88
			h-29.12l6.776-40.648l-7.064-21.192l10.16-10.16h9.376l10.16,10.16l-7.064,21.192L358.56,480.88z M438.56,480.88l-6.712-33.568
			l-15.688,3.144l6.08,30.424h-47.464l-6.56-39.352l3.28-9.84l7.424,7.424l17.792-44.464l36.168,10.848
			c19.872,5.96,34.752,22.304,38.824,42.656l6.536,32.728H438.56z"/>
	</g>
</g>
<g>
	<g>
		<rect style="fill:#ff5954;" x="48" y="352.88" width="112" height="16"/>
	</g>
</g>
<g>
	<g>
		<rect style="fill:#ff5954;" x="48" y="384.88" width="112" height="16"/>
	</g>
</g>
<g>
	<g>
		<rect style="fill:#ff5954;" x="96" y="416.88" width="16" height="16"/>
	</g>
</g>
<g>
	<g>
		<rect style="fill:#ff5954;" x="128" y="416.88" width="16" height="16"/>
	</g>
</g>
<g>
	<g>
		<rect style="fill:#ff5954;" x="64" y="416.88" width="16" height="16"/>
	</g>
</g>
<g>
	<g>
		<rect style="fill:#ff5954;" x="352" y="32.88" width="112" height="16"/>
	</g>
</g>
<g>
	<g>
		<rect style="fill:#ff5954;" x="352" y="64.88" width="112" height="16"/>
	</g>
</g>
<g>
	<g>
		<rect style="fill:#ff5954;" x="400" y="96.88" width="16" height="16"/>
	</g>
</g>
<g>
	<g>
		<rect style="fill:#ff5954;" x="432" y="96.88" width="16" height="16"/>
	</g>
</g>
<g>
	<g>
		<rect style="fill:#ff5954;" x="368" y="96.88" width="16" height="16"/>
	</g>
</g>
<g>
</g>
<g>
</g>
<g>
</g>
<g>
</g>
<g>
</g>
<g>
</g>
<g>
</g>
<g>
</g>
<g>
</g>
<g>
</g>
<g>
</g>
<g>
</g>
<g>
</g>
<g>
</g>
<g>
</g>
</svg>
