<?xml version="1.0" standalone="no"?>
<!DOCTYPE svg PUBLIC "-//W3C//DTD SVG 20010904//EN"
 "http://www.w3.org/TR/2001/REC-SVG-20010904/DTD/svg10.dtd">
<svg version="1.0" xmlns="http://www.w3.org/2000/svg"
 width="228.000000pt" height="247.000000pt" viewBox="0 0 228.000000 247.000000"
 preserveAspectRatio="xMidYMid meet">
<g transform="translate(0.000000,247.000000) scale(0.050000,-0.050000)"
fill="#f33535" stroke="none">
<path d="M3644 4759 c-408 -80 -861 -637 -1093 -1343 l-88 -266 -206 -6 c-193
-5 -236 -18 -237 -69 0 -8 95 -15 210 -15 116 0 210 -4 210 -10 0 -5 -31 -129
-69 -275 -38 -146 -106 -445 -151 -665 l-81 -400 -85 -86 c-134 -137 -228
-138 -282 -3 -27 68 -32 186 -32 774 0 720 -7 790 -86 907 -262 392 -1232 346
-1432 -69 -111 -228 18 -484 224 -445 184 34 230 239 87 385 -111 112 -111
113 -28 196 105 105 479 165 640 104 148 -57 164 -105 172 -515 l6 -352 -246
-11 c-690 -32 -1019 -233 -1052 -646 -43 -536 742 -750 1218 -331 l89 78 48
-90 c73 -137 159 -186 330 -186 139 0 324 61 359 118 49 80 29 -41 -83 -502
-153 -625 -177 -685 -319 -816 -166 -151 -368 -173 -257 -28 145 190 -63 431
-265 308 -247 -150 -57 -496 258 -473 507 38 830 712 1416 2948 l23 85 246 0
c231 0 248 3 258 40 10 38 0 40 -239 40 -242 0 -249 1 -237 41 7 22 43 160 79
305 162 651 445 1165 664 1206 102 19 125 -15 60 -92 -168 -200 69 -453 308
-330 298 155 20 559 -337 489z m-2356 -2211 c44 -17 47 -680 4 -764 -96 -184
-373 -307 -573 -256 -296 77 -401 526 -189 804 115 150 583 283 758 216z"/>
</g>
</svg>
